<svg width="600" height="600" viewBox="0 0 600 600" fill="none" xmlns="http://www.w3.org/2000/svg">
<rect width="600" height="600" fill="white"/>
<path d="M277.524 426.073C246.723 426.073 243.393 423.582 243.393 414.033V318.548H356.607V414.033C356.607 423.582 353.277 426.073 322.476 426.073V446H459V426.073C428.199 426.073 424.869 423.582 424.869 414.033V203.967C424.869 194.418 428.199 191.927 459 191.927V172H322.476V191.927C353.277 191.927 356.607 194.418 356.607 203.967V294.47H243.393V203.967C243.393 194.418 246.723 191.927 277.524 191.927V172H141V191.927C171.801 191.927 175.131 194.418 175.131 203.967V414.033C175.131 423.582 171.801 426.073 141 426.073V446H277.524V426.073Z" fill="#3F5277"/>
</svg>
