<svg width="222" height="65" viewBox="0 0 222 65" fill="none" xmlns="http://www.w3.org/2000/svg">
<path d="M28.0062 60.0395C21.6877 60.0395 21.0046 59.5263 21.0046 57.5592V37.8882H44.2292V57.5592C44.2292 59.5263 43.5462 60.0395 37.2277 60.0395V64.1447H65.2338V60.0395C58.9154 60.0395 58.2323 59.5263 58.2323 57.5592V14.2829C58.2323 12.3158 58.9154 11.8026 65.2338 11.8026V7.69737H37.2277V11.8026C43.5462 11.8026 44.2292 12.3158 44.2292 14.2829V32.9276H21.0046V14.2829C21.0046 12.3158 21.6877 11.8026 28.0062 11.8026V7.69737H0V11.8026C6.31846 11.8026 7.00154 12.3158 7.00154 14.2829V57.5592C7.00154 59.5263 6.31846 60.0395 0 60.0395V64.1447H28.0062V60.0395Z" fill="#1D2135"/>
<path d="M109.122 53.9671L105.45 51.2303C102.291 55.6776 99.3877 57.6447 94.6915 57.6447C87.6046 57.6447 83.0792 52.5132 82.5669 43.875H109.292V41.8224C109.292 31.1316 103.315 22.2368 91.02 22.2368C78.81 22.2368 69.5031 32.3289 69.5031 44.4737C69.5031 57.3026 79.5785 65 90.6785 65C99.1315 65 105.706 60.8092 109.122 53.9671ZM90.6785 27.5395C95.8869 27.5395 96.9969 33.4408 96.9969 39.1711H82.5669C83.1646 32.0724 85.8969 27.5395 90.6785 27.5395Z" fill="#1D2135"/>
<path d="M148.228 65C152.668 65 156.51 62.6908 159.498 59.1842L157.022 56.4474C155.485 58.1579 154.205 58.5855 153.18 58.5855C152.07 58.5855 151.558 57.9013 151.558 56.2763V34.3816C151.558 26.7697 146.093 22.2368 136.786 22.2368C126.198 22.2368 116.294 27.1974 116.294 33.6974C116.294 37.4605 119.026 39.4276 122.015 39.4276C125.686 39.4276 127.821 36.9474 127.821 34.0395C127.821 32.9276 127.308 31.7303 127.308 31.0461C127.308 28.6513 130.041 27.4539 132.688 27.4539C136.786 27.4539 138.579 29.7632 138.579 34.3816V38.4868C123.466 43.3618 115.013 47.3816 115.013 55.6776C115.013 60.8947 119.282 65 125.43 65C130.126 65 134.481 63.2039 139.092 59.0132C141.141 62.8618 143.873 65 148.228 65ZM138.579 42.7632V55.8487C136.701 57.3026 134.993 57.9013 133.371 57.9013C130.468 57.9013 127.992 56.1053 127.992 52.2566C127.992 46.7829 133.285 44.4737 138.579 42.7632Z" fill="#1D2135"/>
<path d="M164.792 11.9737V58.5C164.792 60.125 164.28 60.3816 160.438 60.3816V64.1447H182.296V60.3816C178.454 60.3816 177.942 60.125 177.942 58.5V0H175.38L160.011 4.53289V7.09868L162.828 8.63816C164.28 9.4079 164.792 10.1776 164.792 11.9737Z" fill="#1D2135"/>
<path d="M205.521 27.0263C210.132 27.0263 213.632 29.6776 214.998 35.3224H218.755V25.2303C214.657 23.0921 210.558 22.2368 205.948 22.2368C195.702 22.2368 188.444 28.4803 188.444 35.9211C188.444 52.1711 210.815 45.6711 210.815 54.9934C210.815 58.2434 207.399 60.2105 203.728 60.2105C198.348 60.2105 193.908 58.0724 191.176 50.2895H187.078L188.102 61.2368C191.945 63.4605 196.726 65 203.215 65C213.291 65 222 59.2697 222 50.5461C222 34.5526 199.8 40.3684 199.8 32.0724C199.8 28.9079 202.276 27.0263 205.521 27.0263Z" fill="#1D2135"/>
</svg>
