<svg width="201" height="86" viewBox="0 0 201 86" fill="none" xmlns="http://www.w3.org/2000/svg">
<path d="M31.6831 0H0C6.58979 3.06354 8.35926 5.39649 8.376 10.561V69.5572C8.08605 72.0024 5.91789 73.3603 0 75.384H29.1339C24.7098 73.2299 23.0599 72.1032 22.943 69.5572V38.2383H44.7934V69.5572C44.5534 72.313 43.152 73.5594 38.9666 75.384H62.6379C58.4009 73.8596 56.7263 72.7153 56.4469 69.5572V13.1103C56.5182 6.99075 57.538 3.97666 62.6379 0H38.9666C43.4598 4.79008 44.5544 7.68754 44.7934 13.1103V32.4115H22.943V13.1103C22.943 6.40946 28.7697 1.57809 31.6831 0Z" fill="#3F5277"/>
<path fill-rule="evenodd" clip-rule="evenodd" d="M93.7967 49.5277L73.0388 51.7127C72.8682 58.193 73.4859 66.229 80.9334 66.2928C85.4713 66.3316 87.5422 65.6148 89.4266 63.7304C91.1746 61.9824 91.3688 59.3604 91.2474 58.2678H95.2533C95.4961 63.0021 93.9424 72.4706 85.7849 72.4706C75.588 72.4706 69.9813 70.4993 67.0285 66.2797C63.206 60.8171 63.6268 45.0727 66.4836 40.7875C69.397 36.4174 72.6746 34.2324 79.2297 34.2324C85.7849 34.2324 89.7907 37.8741 91.2474 40.7875C92.4128 43.1182 93.4325 47.5854 93.7967 49.5277ZM85.7849 46.2501H73.0388C73.0388 44.4292 74.277 40.7875 79.2297 40.7875C84.1825 40.7875 85.6635 44.4292 85.7849 46.2501Z" fill="#3F5277"/>
<path fill-rule="evenodd" clip-rule="evenodd" d="M111.827 41.88C112.92 44.3078 114.085 49.1635 110.007 49.1635C104.908 49.1635 102.723 40.0591 105.272 37.5099C107.822 34.9607 118.383 30.2264 128.215 34.2323C136.081 37.4371 132.221 50.863 129.672 57.1753C129.084 58.632 128.215 61.2541 128.215 67.3722C128.215 73.4903 133.071 75.5054 136.955 76.1123C136.227 76.8407 134.042 78.2974 128.215 78.2974C128.215 78.2974 126.516 75.5054 126.759 74.2915C125.545 75.2626 118.164 77.7147 110.007 75.384C100.624 72.7031 101.222 68.1005 101.616 65.5762C102.359 60.817 106.131 58.5846 110.007 57.1753C114.012 55.7186 118.99 54.7475 120.203 54.9903C121.417 54.1405 123.845 50.8387 123.845 47.3426C123.845 42.9725 120.932 41.5158 118.747 41.1517C116.43 40.7655 113.284 41.3944 111.827 41.88ZM120.203 69.193V60.0887C116.198 60.0887 111.827 62.6379 110.007 64.0946C108.186 65.5513 107.093 68.4647 110.007 70.2856C112.337 71.7423 117.776 70.1642 120.203 69.193Z" fill="#3F5277"/>
<path d="M146.433 11.6623V75.3927C146.266 81.0157 143.984 83.0102 138.421 85.9538L165.006 82.6762C161.792 80.9044 158.99 78.9195 158.815 75.3927V9.84145C158.949 6.71366 160.034 5.20971 163.549 2.92215H138.421C145.346 5.03979 146.433 8.02058 146.433 11.6623Z" fill="#3F5277"/>
<path d="M173.932 69.2018H180.123C179.152 70.1729 177.21 72.4793 177.21 73.936C177.21 75.7569 180.123 78.6703 185.222 78.6703C190.32 78.6703 193.962 74.3002 193.962 72.1151C193.962 69.9301 195.054 65.56 185.222 62.6466C175.389 59.7332 172.84 56.4557 172.84 51.7214C172.84 46.9871 177.574 41.5245 183.401 41.5245C189.228 41.5245 203.43 43.7096 196.511 50.6289C189.592 57.5482 187.042 47.3513 185.222 47.3513C183.401 47.3513 180.123 47.3513 180.123 52.4498C180.123 57.5482 187.771 56.0915 195.054 60.4616C202.338 64.8317 200.881 69.2018 200.881 75.7569C200.881 81.001 196.268 84.0115 193.962 84.8612C186.193 85.2254 170.655 84.4971 170.655 78.6703C170.655 72.8435 172.84 69.9301 173.932 69.2018Z" fill="#3F5277"/>
</svg>
